<svg width="2000" height="550" viewBox="0 0 2000 550" fill="none" xmlns="http://www.w3.org/2000/svg">
<rect width="2000" height="550" fill="#14457B"/>
<path d="M1669.24 464C1669.03 464 1668.83 463.997 1668.63 463.994C1658.78 463.753 1650.36 457.693 1648.16 449.254L1574.47 166.436L1509.68 300.855C1506.29 307.874 1498.46 312.435 1489.78 312.435H1312.61C1300.68 312.435 1291 303.937 1291 293.457C1291 282.976 1300.68 274.479 1312.61 274.479H1475.46L1560.72 97.5813C1564.38 89.9997 1573.17 85.3509 1582.52 86.0737C1591.86 86.795 1599.6 92.721 1601.69 100.746L1671.63 369.14L1735.25 175.154C1737.85 167.209 1746.02 161.659 1755.43 161.436C1764.69 161.22 1773.33 166.365 1776.43 174.176L1816.13 274.479H1978.39C1990.32 274.479 2000 282.976 2000 293.457C2000 303.937 1990.32 312.435 1978.39 312.435H1800.76C1791.56 312.435 1783.37 307.32 1780.35 299.687L1757.94 243.089L1690 450.273C1687.33 458.418 1678.84 464 1669.24 464V464Z" fill="#52ABDB" fill-opacity="0.21"/>
</svg>
