<?xml version="1.0" standalone="no"?>
<!DOCTYPE svg PUBLIC "-//W3C//DTD SVG 20010904//EN"
 "http://www.w3.org/TR/2001/REC-SVG-20010904/DTD/svg10.dtd">
<svg version="1.0" xmlns="http://www.w3.org/2000/svg"
 width="512.000000pt" height="512.000000pt" viewBox="0 0 512.000000 512.000000"
 preserveAspectRatio="xMidYMid meet">
<metadata>
Created by potrace 1.14, written by Peter Selinger 2001-2017
</metadata>
<g transform="translate(0.000000,512.000000) scale(0.100000,-0.100000)"
fill="#000000" stroke="none">
<path d="M1367 4494 c-585 -90 -1034 -491 -1130 -1008 -20 -111 -19 -301 3
-406 29 -133 42 -159 82 -160 31 0 38 32 21 96 -53 204 -49 401 13 592 159
487 664 826 1229 824 101 0 198 -9 265 -24 25 -5 53 -11 64 -14 159 -32 387
-141 522 -251 64 -51 167 -154 191 -190 23 -34 57 -29 95 14 71 81 165 166
238 218 109 77 306 173 390 190 8 2 35 8 60 15 25 7 52 13 60 15 28 5 100 17
128 21 39 5 300 6 309 1 5 -3 32 -8 61 -11 79 -9 136 -23 237 -57 498 -168
826 -590 827 -1064 0 -60 -3 -126 -6 -145 -60 -322 -163 -484 -485 -771 -46
-40 -96 -85 -111 -99 -15 -14 -58 -53 -96 -86 -38 -34 -81 -72 -95 -85 -14
-13 -61 -55 -105 -94 -90 -80 -177 -158 -184 -165 -3 -3 -45 -41 -95 -84 -49
-44 -95 -85 -100 -90 -9 -9 -65 -60 -223 -201 -19 -16 -44 -39 -56 -50 -29
-26 -168 -151 -193 -173 -42 -36 -177 -158 -203 -182 -15 -14 -62 -56 -106
-95 -43 -38 -101 -90 -129 -115 -27 -25 -55 -49 -61 -55 -6 -5 -32 -29 -57
-52 -43 -40 -71 -53 -79 -35 -1 4 -46 45 -98 92 -52 46 -100 89 -106 95 -6 5
-44 39 -84 75 -41 36 -86 76 -100 90 -15 14 -44 40 -66 59 -21 19 -62 55 -89
80 -28 25 -83 74 -122 109 -40 35 -82 73 -96 85 -13 12 -58 53 -100 91 -43 38
-88 78 -100 90 -71 65 -192 173 -210 189 -21 17 -136 120 -183 162 -12 11 -39
36 -60 55 -22 19 -80 71 -129 115 -50 44 -97 87 -105 96 -44 47 -100 43 -100
-6 0 -14 3 -25 8 -25 4 0 28 -20 53 -43 25 -23 83 -76 130 -117 124 -111 183
-164 189 -170 3 -3 43 -39 90 -80 47 -41 92 -82 100 -90 8 -8 76 -69 150 -135
74 -66 153 -137 175 -157 22 -20 49 -45 61 -55 34 -29 175 -156 198 -178 12
-11 57 -51 101 -90 44 -38 87 -76 96 -85 9 -8 49 -44 89 -80 40 -36 83 -74 94
-85 12 -11 60 -54 106 -95 47 -41 91 -81 98 -87 7 -7 21 -13 31 -13 15 0 90
59 146 113 7 7 47 44 90 82 44 39 90 81 104 94 14 12 55 49 91 81 36 32 77 69
91 81 14 13 44 40 65 59 151 134 220 196 230 205 6 6 48 44 94 85 46 41 94 84
106 95 72 65 108 98 184 165 46 41 91 82 100 90 15 14 153 138 190 170 26 23
151 135 181 161 14 13 64 58 110 99 46 41 106 96 134 121 27 25 70 63 94 85
116 102 181 174 247 272 188 280 240 614 147 942 -25 87 -105 248 -168 335
-196 274 -497 462 -857 536 -145 31 -425 32 -573 4 -273 -52 -527 -181 -717
-364 l-90 -86 -71 70 c-91 89 -116 109 -202 166 -155 103 -367 187 -536 214
-19 3 -50 8 -69 11 -73 13 -336 12 -423 -2z"/>
<path d="M1670 3842 c-38 -17 -59 -41 -87 -102 -38 -79 -197 -416 -285 -600
-35 -74 -95 -200 -133 -280 l-68 -146 -501 0 c-451 0 -504 -2 -533 -17 -35
-19 -63 -62 -63 -99 0 -34 36 -87 68 -100 19 -8 193 -12 582 -12 538 -1 556
-1 594 19 43 22 48 31 140 225 35 74 87 185 116 245 28 61 79 169 112 240 34
72 64 133 67 137 5 6 61 -191 86 -302 2 -8 15 -60 30 -115 14 -55 28 -107 30
-115 1 -8 31 -123 65 -255 84 -329 163 -636 199 -780 17 -66 38 -134 47 -152
32 -63 131 -81 193 -36 27 20 71 145 348 1002 l98 304 59 -154 c80 -209 89
-225 134 -247 35 -17 72 -18 582 -16 300 1 556 2 569 3 12 0 38 16 57 35 27
27 34 42 34 74 0 52 -36 96 -87 108 -21 5 -255 9 -520 8 l-483 0 -29 75 c-218
565 -220 569 -262 592 -56 29 -152 6 -177 -44 -6 -12 -46 -128 -87 -257 -42
-129 -86 -264 -98 -300 -11 -36 -22 -69 -23 -75 -10 -40 -180 -552 -182 -550
-2 2 -35 124 -73 272 -90 350 -209 814 -214 833 -38 162 -129 503 -141 527
-26 50 -111 79 -164 55z"/>
</g>
</svg>
