<svg width="1263" height="350" viewBox="0 0 1263 350" fill="none" xmlns="http://www.w3.org/2000/svg">
<rect y="0.79541" width="1266" height="349.205" fill="#14457B"/>
<path d="M1079.86 277.166C1079.74 277.166 1079.62 277.164 1079.51 277.162C1073.75 277.016 1068.84 273.353 1067.56 268.253L1024.52 97.305L986.691 178.554C984.715 182.797 980.138 185.553 975.07 185.553H871.619C864.65 185.553 859 180.417 859 174.082C859 167.747 864.65 162.611 871.619 162.611H966.709L1016.5 55.6865C1018.63 51.1039 1023.77 48.2939 1029.22 48.7308C1034.68 49.1668 1039.2 52.7487 1040.42 57.5993L1081.26 219.829L1118.4 102.575C1119.93 97.7727 1124.69 94.4176 1130.19 94.2832C1135.6 94.1525 1140.64 97.2621 1142.45 101.984L1165.63 162.611H1260.38C1267.35 162.611 1273 167.747 1273 174.082C1273 180.417 1267.35 185.553 1260.38 185.553H1156.66C1151.29 185.553 1146.5 182.461 1144.74 177.848L1131.66 143.638L1091.98 268.869C1090.42 273.792 1085.47 277.166 1079.86 277.166Z" fill="#52ABDB" fill-opacity="0.21"/>
</svg>
