<svg width="219" height="57" viewBox="0 0 219 57" fill="none" xmlns="http://www.w3.org/2000/svg">
<g clip-path="url(#clip0_21_98)">
<path d="M81.665 30.6909V27.8463C82.5511 27.175 83.5783 26.2907 84.7467 25.1943C85.9146 24.0981 86.972 23.0364 87.919 22.009C89.651 20.1525 90.5173 18.4533 90.5173 16.9124C90.5173 16.0236 90.2652 15.3421 89.7619 14.868C89.2583 14.3939 88.5431 14.1568 87.6169 14.1568C86.7907 14.1568 85.9902 14.3346 85.215 14.6902C84.4394 15.0458 83.6387 15.6087 82.8131 16.3791C81.8661 15.3125 81.3931 14.5323 81.3931 14.0384C81.3931 13.6434 81.6348 13.2485 82.1182 12.853C83.8299 11.4901 85.8239 10.8086 88.1003 10.8086C90.1746 10.8086 91.7863 11.3076 92.9343 12.3048C94.0824 13.3026 94.6564 14.73 94.6564 16.5865C94.6564 18.957 93.2463 21.5845 90.4266 24.4683C89.2583 25.6735 88.2008 26.681 87.2543 27.4907H93.0249C93.8303 27.4907 94.4449 27.6834 94.8678 28.0685C95.2909 28.4538 95.5023 28.9722 95.5023 29.6241C95.5023 29.8418 95.4971 30.0292 95.4873 30.1872C95.4769 30.3455 95.4618 30.5131 95.442 30.6909H81.665Z" fill="#68B5DE"/>
<path d="M97.7682 25.9797V23.2832L105.442 12.8531C105.926 12.2012 106.409 11.7373 106.892 11.4605C107.376 11.184 107.899 11.0457 108.463 11.0457C108.725 11.0457 109.027 11.0901 109.37 11.1789C109.712 11.2679 109.964 11.3716 110.125 11.4902V23.0462H111.062C112.109 23.0462 112.633 23.5202 112.633 24.4684C112.633 24.6462 112.622 24.8194 112.603 24.987C112.582 25.1551 112.562 25.318 112.542 25.476L112.482 25.9797H110.125V30.691H106.016V25.9797H97.7682L97.7682 25.9797ZM106.016 22.9573V16.3792L101.031 22.9573H106.016Z" fill="#68B5DE"/>
<path d="M117.225 30.691H113.388L120.639 12.4384C120.881 11.8457 121.208 11.4114 121.621 11.1346C122.033 10.8581 122.562 10.7197 123.207 10.7197C123.77 10.7197 124.204 10.7595 124.506 10.8383L125.02 10.9567L117.225 30.691Z" fill="#68B5DE"/>
<path d="M132.301 30.691H127.95L135.836 14.5421H126.711L126.621 14.0384C126.6 13.8805 126.585 13.7125 126.575 13.5346C126.565 13.3568 126.56 13.1892 126.56 13.0309C126.56 12.379 126.766 11.8855 127.18 11.5494C127.592 11.2138 128.192 11.0457 128.977 11.0457H139.038C139.622 11.0457 140.025 11.1397 140.246 11.3271C140.468 11.5151 140.579 11.8657 140.579 12.379V13.5643L132.301 30.691Z" fill="#68B5DE"/>
<path d="M164.767 14.868C164.082 14.1374 163.362 13.6041 162.607 13.2679C161.852 12.9322 161.01 12.7642 160.084 12.7642C158.07 12.7642 156.529 13.4657 155.462 14.868C154.394 16.2708 153.86 18.2561 153.86 20.8238C153.86 23.3919 154.414 25.3824 155.522 26.7944C156.63 28.2071 158.231 28.913 160.326 28.913C161.212 28.913 162.073 28.7159 162.909 28.3204C163.745 27.9255 164.465 27.3824 165.069 26.6907C165.351 26.9083 165.603 27.1797 165.825 27.5056C166.046 27.8315 166.157 28.0936 166.157 28.2908C166.157 28.6071 166.016 28.9033 165.734 29.1798C165.13 29.7723 164.324 30.2464 163.317 30.6019C162.309 30.9576 161.222 31.1354 160.054 31.1354C157.173 31.1354 154.968 30.2368 153.437 28.4389C151.906 26.6417 151.141 24.1128 151.141 20.8534C151.141 17.5941 151.922 15.0509 153.483 13.2235C155.043 11.3966 157.244 10.4827 160.084 10.4827C161.111 10.4827 162.093 10.6358 163.03 10.9419C163.967 11.2484 164.711 11.6188 165.266 12.053C165.819 12.4877 166.096 12.9026 166.096 13.2975C166.096 13.6929 165.834 14.2161 165.311 14.868H164.767V14.868Z" fill="#68B5DE"/>
<path d="M175.583 11.0455C175.744 10.9668 175.97 10.9025 176.263 10.8529C176.555 10.8039 176.822 10.7788 177.064 10.7788C177.949 10.7788 178.544 11.1839 178.846 11.9937L185.825 30.6908H183.076L181.052 25.3573H172.894L170.93 30.6908H168.271L175.583 11.0455ZM180.357 23.2535L176.973 13.8012L173.559 23.2535H180.357Z" fill="#68B5DE"/>
<path d="M189.179 10.927C190.427 10.7492 192.008 10.6604 193.922 10.6604C196.621 10.6604 198.59 11.1099 199.829 12.0085C201.067 12.9077 201.687 14.3447 201.687 16.3199C201.687 17.3273 201.5 18.231 201.128 19.0311C200.755 19.8311 200.231 20.4932 199.557 21.0163C198.882 21.54 198.111 21.9006 197.245 22.0979L202.774 30.6909C202.432 30.8686 201.958 30.9576 201.354 30.9576C200.448 30.9576 199.733 30.5723 199.209 29.8019L194.496 22.572H191.807V30.6909H189.179V10.927ZM193.952 20.3793C197.276 20.3793 198.937 19.0756 198.937 16.4681C198.937 15.1841 198.564 14.2604 197.819 13.6975C197.074 13.1345 195.795 12.853 193.982 12.853C193.036 12.853 192.31 12.8928 191.807 12.9716V20.3793H193.952V20.3793Z" fill="#68B5DE"/>
<path d="M206.249 10.8679H217.911C217.951 11.0657 217.971 11.273 217.971 11.4902C217.971 12.5568 217.356 13.0903 216.128 13.0903H208.877V19.1943H215.735V21.4758H208.877V28.4687H216.551C217.155 28.4687 217.618 28.6072 217.941 28.8835C218.263 29.1603 218.424 29.5552 218.424 30.0687C218.424 30.2665 218.414 30.4738 218.394 30.691H206.249V10.8679Z" fill="#68B5DE"/>
<path d="M65.79 39.4372C67.3502 39.2655 68.8315 39.1792 70.2341 39.1792C73.144 39.1792 75.331 39.893 76.7951 41.3197C78.2585 42.7472 78.9907 44.8703 78.9907 47.69C78.9907 49.3405 78.7146 50.802 78.1624 52.0741C77.6102 53.3468 76.7991 54.3695 75.73 55.1433C74.3273 56.1231 72.3814 56.6131 69.8922 56.6131H65.79V39.4372ZM70.2604 54.7047C72.3464 54.7047 73.9288 54.116 75.0069 52.9382C76.085 51.7607 76.624 50.0542 76.624 47.8189C76.624 45.5324 76.1068 43.8516 75.0726 42.777C74.038 41.7026 72.443 41.1651 70.2867 41.1651C69.4276 41.1651 68.6913 41.2082 68.0779 41.294V54.7047H70.2604Z" fill="black"/>
<path d="M82.672 39.3342C82.9522 39.2999 83.1717 39.2825 83.3294 39.2825C83.8553 39.2825 84.2629 39.4245 84.5522 39.7079C84.8414 39.9917 84.986 40.3914 84.986 40.9072V56.6133H82.672V39.3342V39.3342Z" fill="black"/>
<path d="M94.242 39.5148C94.3821 39.4462 94.5794 39.3902 94.8337 39.347C95.0876 39.3042 95.3201 39.2825 95.5305 39.2825C96.3017 39.2825 96.819 39.6351 97.0819 40.34L103.156 56.6133H100.763L99.0016 51.9711H91.9017L90.1923 56.6133H87.8783L94.242 39.5148ZM98.3968 50.1401L95.4516 41.913L92.4802 50.1401H98.3968Z" fill="black"/>
<path d="M116.278 49.4179H112.597V47.5869H118.461V54.8853C118.25 55.1433 117.909 55.4139 117.435 55.6977C116.962 55.9814 116.453 56.218 115.91 56.4069C115.367 56.5963 114.797 56.7423 114.201 56.8455C113.605 56.9487 112.991 57.0001 112.36 57.0001C109.871 57.0001 107.946 56.2094 106.588 54.6276C105.229 53.0457 104.55 50.8106 104.55 47.9221C104.55 45.1024 105.243 42.9147 106.628 41.3586C108.012 39.8027 109.976 39.0247 112.518 39.0247C113.359 39.0247 114.183 39.1535 114.99 39.4113C115.796 39.6693 116.436 39.9833 116.909 40.3528C117.383 40.7228 117.619 41.0708 117.619 41.3972C117.619 41.7755 117.391 42.2398 116.936 42.7899H116.489C116.05 42.2572 115.463 41.8272 114.727 41.5003C113.991 41.174 113.202 41.0103 112.36 41.0103C110.572 41.0103 109.213 41.6035 108.284 42.7899C107.355 43.9763 106.891 45.6873 106.891 47.9221C106.891 50.1917 107.381 51.9582 108.363 53.222C109.345 54.4856 110.756 55.1173 112.597 55.1173C113.368 55.1173 114.091 55.0059 114.766 54.7822C115.441 54.559 115.945 54.2838 116.278 53.9569V49.4179L116.278 49.4179Z" fill="black"/>
<path d="M122.405 39.4113C122.633 39.3256 122.975 39.2825 123.43 39.2825C123.799 39.2825 124.092 39.343 124.311 39.4631C124.531 39.5836 124.745 39.8071 124.956 40.1337L133.476 53.1832V39.3342C133.756 39.2999 133.966 39.2825 134.107 39.2825C134.58 39.2825 134.948 39.4205 135.211 39.6951C135.474 39.9705 135.606 40.3746 135.606 40.9072V56.6133H133.476L124.535 43.2283V56.6133H122.405V39.4113Z" fill="black"/>
<path d="M154.722 47.8964C154.722 50.7163 154.056 52.9383 152.724 54.563C151.391 56.1877 149.498 57.0001 147.044 57.0001C145.431 57.0001 144.068 56.6346 142.955 55.904C141.842 55.1733 140.996 54.1206 140.417 52.7448C139.839 51.3695 139.55 49.762 139.55 47.9221C139.55 46.1168 139.865 44.5352 140.496 43.1768C141.127 41.8186 142.022 40.7871 143.179 40.0819C144.335 39.3773 145.703 39.0247 147.281 39.0247C148.876 39.0247 150.226 39.3815 151.33 40.0948C152.435 40.8085 153.276 41.8318 153.855 43.1639C154.433 44.4963 154.722 46.0742 154.722 47.8964V47.8964ZM152.33 47.9221C152.33 45.6873 151.896 43.9763 151.028 42.7899C150.16 41.6035 148.893 41.0103 147.228 41.0103C145.51 41.0103 144.204 41.5995 143.31 42.777C142.416 43.9548 141.969 45.6699 141.969 47.9221C141.969 50.1917 142.411 51.9413 143.297 53.1703C144.182 54.3998 145.466 55.0142 147.149 55.0142C148.832 55.0142 150.116 54.3953 151.002 53.1574C151.887 51.9196 152.33 50.1746 152.33 47.9221Z" fill="black"/>
<path d="M166.635 42.1452C166.179 41.8015 165.635 41.5261 165.004 41.3197C164.373 41.1134 163.733 41.0103 163.085 41.0103C162.033 41.0103 161.226 41.2386 160.665 41.6938C160.104 42.1495 159.824 42.7813 159.824 43.5894C159.824 44.0537 159.933 44.4623 160.153 44.8144C160.372 45.167 160.735 45.485 161.244 45.7687C161.752 46.0522 162.567 46.3662 163.69 46.71C165.284 47.2088 166.451 47.8664 167.187 48.683C167.923 49.4997 168.291 50.5183 168.291 51.739C168.291 53.3726 167.761 54.6576 166.7 55.5945C165.64 56.5317 164.189 57.0001 162.348 57.0001C161.384 57.0001 160.485 56.8969 159.653 56.6906C158.82 56.4843 158.167 56.2094 157.694 55.8654C157.256 55.5905 157.037 55.2722 157.037 54.911C157.037 54.7396 157.111 54.5113 157.26 54.2278C157.409 53.9441 157.597 53.6563 157.826 53.3637C158.492 53.8969 159.215 54.3095 159.995 54.6016C160.775 54.8942 161.559 55.0402 162.348 55.0402C163.505 55.0402 164.391 54.7781 165.004 54.2535C165.618 53.7292 165.924 53.0026 165.924 52.0742C165.924 51.507 165.819 51.0169 165.609 50.6043C165.399 50.1917 165.057 49.8348 164.583 49.5339C164.11 49.2333 163.4 48.9367 162.454 48.6442C161.139 48.2661 160.144 47.8664 159.469 47.4449C158.794 47.024 158.29 46.5125 157.957 45.9105C157.624 45.309 157.457 44.5952 157.457 43.77C157.457 42.773 157.694 41.9218 158.167 41.2166C158.641 40.5119 159.302 39.9705 160.153 39.5919C161.003 39.2141 161.98 39.0247 163.085 39.0247C163.786 39.0247 164.505 39.1109 165.241 39.2824C165.977 39.4544 166.591 39.6867 167.082 39.9788C167.432 40.1851 167.687 40.3874 167.844 40.5848C168.002 40.7828 168.081 40.9934 168.081 41.2166C168.081 41.5778 167.792 42.0421 167.213 42.6093C167.143 42.541 167.059 42.4676 166.963 42.3901C166.867 42.3127 166.757 42.2312 166.635 42.1452V42.1452Z" fill="black"/>
<path d="M175.496 41.3198H169.921C169.869 41.0794 169.842 40.8388 169.842 40.5977C169.842 40.2368 169.991 39.9402 170.289 39.7079C170.587 39.4759 170.973 39.3599 171.446 39.3599H183.516C183.551 39.6007 183.569 39.7982 183.569 39.9531C183.569 40.3657 183.424 40.6968 183.135 40.946C182.846 41.1955 182.455 41.3198 181.965 41.3198H177.81V56.6132H175.496V41.3198Z" fill="black"/>
<path d="M186.146 39.3342C186.426 39.2999 186.645 39.2825 186.803 39.2825C187.329 39.2825 187.736 39.4245 188.026 39.7079C188.315 39.9917 188.46 40.3914 188.46 40.9072V56.6133H186.146V39.3342V39.3342Z" fill="black"/>
<path d="M204.237 42.8416C203.641 42.2055 203.014 41.7415 202.357 41.4489C201.699 41.1566 200.967 41.0103 200.161 41.0103C198.408 41.0103 197.067 41.6209 196.138 42.8416C195.208 44.0626 194.744 45.7904 194.744 48.0252C194.744 50.2606 195.226 51.9927 196.191 53.222C197.154 54.4513 198.548 55.0659 200.371 55.0659C201.143 55.0659 201.892 54.8942 202.62 54.5501C203.347 54.2064 203.974 53.7338 204.5 53.1317C204.746 53.3211 204.964 53.5572 205.157 53.8409C205.35 54.1247 205.447 54.3527 205.447 54.5244C205.447 54.7996 205.324 55.0573 205.079 55.2979C204.553 55.8137 203.851 56.2263 202.975 56.5358C202.098 56.8455 201.151 57.0001 200.135 57.0001C197.628 57.0001 195.708 56.218 194.376 54.6533C193.044 53.0888 192.378 50.8878 192.378 48.051C192.378 45.2141 193.057 43.0007 194.415 41.41C195.774 39.8201 197.689 39.0247 200.161 39.0247C201.055 39.0247 201.91 39.1578 202.725 39.4244C203.54 39.691 204.189 40.0133 204.671 40.3914C205.153 40.7697 205.394 41.1309 205.394 41.4746C205.394 41.8186 205.166 42.2741 204.711 42.8416H204.237V42.8416Z" fill="black"/>
<path d="M217.017 42.1452C216.561 41.8015 216.018 41.5261 215.386 41.3197C214.755 41.1134 214.115 41.0103 213.467 41.0103C212.415 41.0103 211.609 41.2386 211.048 41.6938C210.487 42.1495 210.206 42.7813 210.206 43.5894C210.206 44.0537 210.316 44.4623 210.535 44.8144C210.754 45.167 211.118 45.485 211.626 45.7687C212.134 46.0522 212.95 46.3662 214.072 46.71C215.667 47.2088 216.833 47.8664 217.569 48.683C218.305 49.4997 218.673 50.5183 218.673 51.739C218.673 53.3726 218.143 54.6576 217.083 55.5945C216.022 56.5317 214.572 57.0001 212.731 57.0001C211.766 57.0001 210.868 56.8969 210.035 56.6906C209.203 56.4843 208.55 56.2094 208.076 55.8654C207.638 55.5905 207.419 55.2722 207.419 54.911C207.419 54.7396 207.493 54.5113 207.642 54.2278C207.791 53.9441 207.98 53.6563 208.208 53.3637C208.874 53.8969 209.597 54.3095 210.377 54.6016C211.157 54.8942 211.942 55.0402 212.731 55.0402C213.888 55.0402 214.773 54.7781 215.386 54.2535C216 53.7292 216.307 53.0026 216.307 52.0742C216.307 51.507 216.202 51.0169 215.991 50.6043C215.781 50.1917 215.439 49.8348 214.966 49.5339C214.493 49.2333 213.783 48.9367 212.836 48.6442C211.521 48.2661 210.526 47.8664 209.851 47.4449C209.176 47.024 208.672 46.5125 208.339 45.9105C208.006 45.309 207.84 44.5952 207.84 43.77C207.84 42.773 208.076 41.9218 208.55 41.2166C209.023 40.5119 209.684 39.9705 210.535 39.5919C211.385 39.2141 212.363 39.0247 213.467 39.0247C214.168 39.0247 214.887 39.1109 215.623 39.2824C216.36 39.4544 216.973 39.6867 217.464 39.9788C217.815 40.1851 218.069 40.3874 218.227 40.5848C218.384 40.7828 218.463 40.9934 218.463 41.2166C218.463 41.5778 218.174 42.0421 217.595 42.6093C217.525 42.541 217.442 42.4676 217.346 42.3901C217.249 42.3127 217.139 42.2312 217.017 42.1452V42.1452Z" fill="black"/>
<path d="M29.377 42.2465C29.3614 42.2465 29.3457 42.2463 29.33 42.246C28.5649 42.2251 27.911 41.6994 27.7404 40.9674L22.0167 16.4357L16.9844 28.0953C16.7216 28.7041 16.1128 29.0997 15.4387 29.0997H1.67847C0.751542 29.0997 0 28.3626 0 27.4536C0 26.5445 0.751542 25.8074 1.67847 25.8074H14.3266L20.9491 10.4633C21.2329 9.80567 21.9159 9.40244 22.6419 9.46513C23.3671 9.5277 23.9685 10.0417 24.1309 10.7378L29.5627 34.0184L34.5039 17.192C34.7064 16.5029 35.3404 16.0214 36.0715 16.0021C36.7909 15.9833 37.4621 16.4296 37.7023 17.1072L40.7858 25.8074H53.3885C54.3155 25.8074 55.067 26.5445 55.067 27.4536C55.067 28.3626 54.3155 29.0997 53.3885 29.0997H39.5922C38.8777 29.0997 38.2414 28.656 38.0068 27.994L36.2668 23.0847L30.9895 41.0558C30.782 41.7624 30.1229 42.2465 29.377 42.2465Z" fill="#68B5DE"/>
<path d="M34.8959 56.0405C34.747 56.0405 34.6043 55.9824 34.4994 55.879L11.8978 33.6035C11.6798 33.3888 11.6806 33.0413 11.8997 32.8276C12.1187 32.6135 12.473 32.6143 12.6908 32.8295L34.8959 54.714L61.3725 28.6195C64.2235 25.5942 65.8015 21.641 65.8015 17.5029C65.8015 8.45695 58.2976 1.09744 49.074 1.09744C43.6161 1.09744 38.4874 3.72343 35.3546 8.12217C35.25 8.26899 35.0787 8.35661 34.8959 8.35661C34.7132 8.35661 34.5419 8.26913 34.4372 8.12217C31.3042 3.72343 26.1755 1.09744 20.7177 1.09744C11.4941 1.09744 3.99032 8.45695 3.99032 17.5029C3.99032 19.0817 4.21871 20.6427 4.6692 22.1421C4.75648 22.4329 4.58696 22.738 4.29069 22.8236C3.99374 22.9095 3.68312 22.743 3.59583 22.4524C3.11516 20.8521 2.87134 19.1867 2.87134 17.5029C2.87134 7.85183 10.8771 0 20.7177 0C26.2816 0 31.5246 2.55753 34.8959 6.87857C38.2668 2.55753 43.51 0 49.074 0C58.9146 0 66.9205 7.85183 66.9205 17.5029C66.9205 21.918 65.2369 26.1356 62.1799 29.3789L35.2925 55.879C35.1876 55.9824 35.0448 56.0405 34.8959 56.0405Z" fill="#476B80"/>
</g>
<defs>
<clipPath id="clip0_21_98">
<rect width="218.674" height="57" fill="white"/>
</clipPath>
</defs>
</svg>
