<svg width="466" height="115" viewBox="0 0 466 115" fill="none" xmlns="http://www.w3.org/2000/svg">
<path d="M64.6267 86.1346C64.5925 86.1346 64.5579 86.1341 64.5234 86.1335C62.8403 86.0909 61.4018 85.0191 61.0265 83.5267L48.4348 33.51L37.3643 57.2822C36.7861 58.5236 35.4468 59.3301 33.9638 59.3301H3.69249C1.65333 59.3301 0 57.8273 0 55.9738C0 54.1203 1.65333 52.6175 3.69249 52.6175H31.5172L46.0862 21.3331C46.7106 19.9923 48.2131 19.1701 49.8102 19.2979C51.4055 19.4255 52.7286 20.4735 53.0859 21.8927L65.0354 69.3586L75.9056 35.0519C76.3509 33.6469 77.7458 32.6652 79.3541 32.6259C80.9368 32.5877 82.4134 33.4975 82.9417 34.879L89.7251 52.6175H117.45C119.489 52.6175 121.143 54.1203 121.143 55.9738C121.143 57.8273 119.489 59.3301 117.45 59.3301H87.0993C85.5274 59.3301 84.1277 58.4255 83.6115 57.0757L79.7838 47.0663L68.1741 83.707C67.7176 85.1475 66.2678 86.1346 64.6267 86.1346V86.1346Z" fill="#68B5DE"/>
<path d="M76.7679 114.259C76.4404 114.259 76.1263 114.14 75.8956 113.929L26.174 68.5129C25.6944 68.0751 25.6962 67.3665 26.1782 66.9309C26.6599 66.4944 27.4394 66.4961 27.9187 66.9347L76.7679 111.554L135.014 58.3511C141.286 52.1829 144.757 44.1229 144.757 35.686C144.757 17.2425 128.249 2.23753 107.958 2.23753C95.9516 2.23753 84.6688 7.59154 77.777 16.56C77.5468 16.8593 77.17 17.0379 76.7679 17.0379C76.3658 17.0379 75.989 16.8596 75.7588 16.56C68.8664 7.59154 57.5836 2.23753 45.577 2.23753C25.2861 2.23753 8.77831 17.2425 8.77831 35.686C8.77831 38.9049 9.28074 42.0875 10.2718 45.1447C10.4638 45.7374 10.0909 46.3596 9.4391 46.5342C8.78583 46.7093 8.10249 46.3697 7.91048 45.7773C6.85303 42.5144 6.31665 39.1191 6.31665 35.686C6.31665 16.0088 23.9287 0 45.577 0C57.8171 0 69.3514 5.21444 76.7679 14.0244C84.1835 5.21444 95.7181 0 107.958 0C129.607 0 147.219 16.0088 147.219 35.686C147.219 44.6878 143.515 53.2869 136.79 59.8995L77.6402 113.929C77.4095 114.14 77.0954 114.259 76.7679 114.259V114.259Z" fill="#476B80"/>
<path d="M169.424 23.88C171.76 23.88 173.76 24.296 175.424 25.128C177.12 25.96 178.4 27.08 179.264 28.488C180.16 29.896 180.608 31.448 180.608 33.144C180.608 34.872 180.256 36.52 179.552 38.088C178.848 39.656 177.6 41.464 175.808 43.512C174.016 45.528 171.408 48.088 167.984 51.192H181.28L180.512 57H159.392V51.624C163.328 47.752 166.192 44.84 167.984 42.888C169.776 40.904 171.024 39.256 171.728 37.944C172.464 36.632 172.832 35.288 172.832 33.912C172.832 32.6 172.448 31.576 171.68 30.84C170.944 30.072 169.936 29.688 168.656 29.688C167.504 29.688 166.48 29.96 165.584 30.504C164.688 31.016 163.744 31.864 162.752 33.048L158.288 29.496C159.632 27.736 161.232 26.36 163.088 25.368C164.976 24.376 167.088 23.88 169.424 23.88ZM207.503 44.328V49.992H203.855V57H196.463L196.415 49.992H182.735V44.952L191.951 23.736L198.383 26.136L190.559 44.328H196.511L197.327 36.648H203.855V44.328H207.503ZM222.426 17.832L229.05 19.32L217.77 62.376L211.098 60.84L222.426 17.832ZM254.131 24.552V29.688L242.227 57.768L235.363 55.464L246.259 30.264H233.155V24.552H254.131Z" fill="#68B5DE"/>
<path d="M278.562 57.7031C276.422 57.7031 274.398 57.1172 272.492 55.9453C270.586 54.7734 269.047 53.0938 267.875 50.9062C266.703 48.7188 266.117 46.1719 266.117 43.2656C266.117 40.0312 266.766 37.1641 268.062 34.6641C269.359 32.1484 271.133 30.2031 273.383 28.8281C275.648 27.4531 278.164 26.7656 280.93 26.7656C282.586 26.7656 284.211 26.9922 285.805 27.4453C287.414 27.8984 288.641 28.4531 289.484 29.1094C289.594 29.2031 289.492 29.6094 289.18 30.3281C288.883 31.0312 288.508 31.7812 288.055 32.5781C287.602 33.3594 287.258 33.8672 287.023 34.1016L285.5 33.7734C284 31.1641 281.969 29.8594 279.406 29.8594C278.203 29.875 277.047 30.2812 275.938 31.0781C274.828 31.8594 273.898 33.1875 273.148 35.0625C272.414 36.9219 272.047 39.3672 272.047 42.3984C272.047 44.9141 272.469 47.0312 273.312 48.75C274.172 50.4688 275.266 51.75 276.594 52.5938C277.938 53.4219 279.336 53.8359 280.789 53.8359C281.836 53.8359 283.047 53.5859 284.422 53.0859C285.797 52.5703 287.227 51.6953 288.711 50.4609C288.867 50.5547 289.148 50.9141 289.555 51.5391C289.773 51.8516 289.898 52.0234 289.93 52.0547C286.258 55.8203 282.469 57.7031 278.562 57.7031ZM298.578 53.6953C298.547 53.8516 298.531 53.9531 298.531 54C298.531 54.3438 298.789 54.6094 299.305 54.7969C299.836 54.9844 300.695 55.1484 301.883 55.2891V57H291.641V55.2891C292.828 55.0859 293.68 54.8828 294.195 54.6797C294.711 54.4609 295.039 54.1328 295.18 53.6953L303.359 28.7109C304.031 28.1328 304.828 27.625 305.75 27.1875C306.688 26.75 307.625 26.3984 308.562 26.1328L318.406 53.6953C318.562 54.1641 318.844 54.5234 319.25 54.7734C319.672 55.0078 320.359 55.1797 321.312 55.2891V57H309.664V55.2891C310.695 55.2266 311.438 55.1094 311.891 54.9375C312.359 54.75 312.594 54.4766 312.594 54.1172C312.594 53.9922 312.57 53.8516 312.523 53.6953L310.133 46.9219H300.828L298.578 53.6953ZM305.281 33.2109L301.766 44.1094H309.148L305.281 33.2109ZM322.836 55.2891C323.852 55.0859 324.641 54.8516 325.203 54.5859C325.766 54.3203 326.047 54.0781 326.047 53.8594V29.8828L323.422 30.2344C323.312 30.2656 323.117 30.2969 322.836 30.3281L322.531 28.1719C324.469 27.75 326.391 27.4141 328.297 27.1641C330.203 26.8984 332.18 26.7656 334.227 26.7656C338.258 26.7656 341.227 27.4141 343.133 28.7109C345.055 29.9922 346.016 31.7109 346.016 33.8672C346.016 35.9453 345.422 37.7266 344.234 39.2109C343.062 40.6953 341.477 41.7812 339.477 42.4688L346.859 52.6875C347.266 53.2344 347.656 53.6094 348.031 53.8125C348.422 54.0156 348.938 54.1172 349.578 54.1172C349.75 54.1172 350.102 54.1016 350.633 54.0703L350.984 55.7812C349.844 56.1562 348.594 56.5078 347.234 56.8359C345.875 57.1641 344.906 57.3281 344.328 57.3281C343.891 57.3281 343.453 57.2031 343.016 56.9531C342.578 56.7031 342.25 56.3984 342.031 56.0391L335.305 43.2656C335.102 43.2812 334.797 43.2891 334.391 43.2891C333.531 43.2891 332.703 43.2031 331.906 43.0312V53.8594C331.906 54.0781 332.18 54.3281 332.727 54.6094C333.289 54.875 334.094 55.1016 335.141 55.2891V57H322.836V55.2891ZM331.906 40.4531C332.562 40.5625 333.258 40.6172 333.992 40.6172C336.055 40.6172 337.586 40.1016 338.586 39.0703C339.602 38.0234 340.109 36.5312 340.109 34.5938C340.109 31.0312 337.805 29.25 333.195 29.25C332.93 29.25 332.5 29.2656 331.906 29.2969V40.4531ZM351.898 57V55.2891C352.914 55.0859 353.703 54.8516 354.266 54.5859C354.828 54.3203 355.109 54.0781 355.109 53.8594V30.6328C355.109 30.4141 354.836 30.1719 354.289 29.9062C353.742 29.625 352.945 29.3828 351.898 29.1797V27.4688H372.547L373.484 28.2188C373.438 29.0938 373.305 30.2578 373.086 31.7109C372.883 33.1641 372.695 34.1719 372.523 34.7344H370.766C370.625 31.7656 369.984 30.2812 368.844 30.2812H360.969V39.7734H370.297L371.07 40.5938C370.102 42.2188 369.383 43.2031 368.914 43.5469C368.414 43.0781 367.836 42.75 367.18 42.5625C366.523 42.3594 365.555 42.2578 364.273 42.2578H360.969V52.6875C360.969 53.0312 361.086 53.3125 361.32 53.5312C361.57 53.7344 362.039 53.8984 362.727 54.0234C363.414 54.1328 364.422 54.1875 365.75 54.1875H368.07C369.023 54.1875 369.797 54.0312 370.391 53.7188C371 53.4062 371.516 52.9141 371.938 52.2422C372.375 51.5547 372.828 50.5625 373.297 49.2656L375.008 49.875C374.883 51.2344 374.719 52.6484 374.516 54.1172C374.328 55.5859 374.172 56.5469 374.047 57H351.898ZM159.008 103V101.289C160.023 101.086 160.812 100.852 161.375 100.586C161.938 100.32 162.219 100.078 162.219 99.8594V75.8828L159.008 76.3281L158.703 74.1719C160.25 73.7812 162.273 73.4531 164.773 73.1875C167.273 72.9062 169.531 72.7656 171.547 72.7656C174.719 72.7656 177.43 73.3359 179.68 74.4766C181.945 75.6016 183.664 77.2422 184.836 79.3984C186.023 81.5547 186.617 84.1406 186.617 87.1562C186.617 90.8281 185.922 93.8516 184.531 96.2266C183.141 98.6016 181.375 100.328 179.234 101.406C177.094 102.469 174.852 103 172.508 103H159.008ZM168.078 98.6875C168.078 99.0312 168.094 99.2734 168.125 99.4141C168.219 99.7891 168.516 100.062 169.016 100.234C169.516 100.406 170.391 100.492 171.641 100.492C172.953 100.492 174.281 100.047 175.625 99.1562C176.969 98.25 178.086 96.8672 178.977 95.0078C179.883 93.1328 180.336 90.8203 180.336 88.0703C180.336 83.9141 179.438 80.7422 177.641 78.5547C175.859 76.3516 173.266 75.25 169.859 75.25C169.484 75.25 168.891 75.2656 168.078 75.2969V98.6875ZM190.039 101.289C191.055 101.086 191.844 100.852 192.406 100.586C192.969 100.32 193.25 100.078 193.25 99.8594V76.6328C193.25 76.4141 192.977 76.1719 192.43 75.9062C191.883 75.625 191.086 75.3828 190.039 75.1797V73.4688H202.344V75.1797C201.312 75.3984 200.516 75.6406 199.953 75.9062C199.391 76.1562 199.109 76.3984 199.109 76.6328V99.8594C199.109 100.078 199.383 100.328 199.93 100.609C200.492 100.875 201.297 101.102 202.344 101.289V103H190.039V101.289ZM211.203 99.6953C211.172 99.8516 211.156 99.9531 211.156 100C211.156 100.344 211.414 100.609 211.93 100.797C212.461 100.984 213.32 101.148 214.508 101.289V103H204.266V101.289C205.453 101.086 206.305 100.883 206.82 100.68C207.336 100.461 207.664 100.133 207.805 99.6953L215.984 74.7109C216.656 74.1328 217.453 73.625 218.375 73.1875C219.312 72.75 220.25 72.3984 221.188 72.1328L231.031 99.6953C231.188 100.164 231.469 100.523 231.875 100.773C232.297 101.008 232.984 101.18 233.938 101.289V103H222.289V101.289C223.32 101.227 224.062 101.109 224.516 100.938C224.984 100.75 225.219 100.477 225.219 100.117C225.219 99.9922 225.195 99.8516 225.148 99.6953L222.758 92.9219H213.453L211.203 99.6953ZM217.906 79.2109L214.391 90.1094H221.773L217.906 79.2109ZM256.039 79.6797C255.039 78.2266 254 77.2031 252.922 76.6094C251.844 76 250.594 75.6953 249.172 75.6953C248.203 75.6953 247.141 76.0859 245.984 76.8672C244.828 77.6484 243.82 78.9688 242.961 80.8281C242.102 82.6719 241.672 85.0859 241.672 88.0703C241.672 90.7266 242.07 92.9531 242.867 94.75C243.664 96.5312 244.711 97.8516 246.008 98.7109C247.32 99.5703 248.75 100 250.297 100C251.875 100 253.258 99.7109 254.445 99.1328V91.9844C254.445 91.7031 254.367 91.4688 254.211 91.2812C254.055 91.0781 253.703 90.875 253.156 90.6719C252.609 90.4531 251.781 90.25 250.672 90.0625V88.3516H262.344V90.0625C260.828 90.4219 260.07 91.0625 260.07 91.9844V99.0391C257.914 100.805 255.969 102.023 254.234 102.695C252.516 103.367 250.852 103.703 249.242 103.703C246.898 103.703 244.695 103.164 242.633 102.086C240.57 100.992 238.906 99.3672 237.641 97.2109C236.375 95.0391 235.742 92.4219 235.742 89.3594C235.742 85.9688 236.445 83.0234 237.852 80.5234C239.273 78.0078 241.219 76.0859 243.688 74.7578C246.172 73.4297 248.969 72.7656 252.078 72.7656C252.797 72.7656 253.664 72.8672 254.68 73.0703C255.695 73.2578 256.695 73.5312 257.68 73.8906C258.664 74.25 259.477 74.6719 260.117 75.1562C260.258 75.2656 260.164 75.6641 259.836 76.3516C259.523 77.0234 259.125 77.7422 258.641 78.5078C258.156 79.2734 257.781 79.7734 257.516 80.0078L256.039 79.6797ZM264.336 101.289C265.383 101.164 266.18 100.961 266.727 100.68C267.273 100.383 267.547 100.109 267.547 99.8594V76.8906C266.531 75.9375 265.461 75.3672 264.336 75.1797V73.4688H270.875C271.188 73.4688 271.43 73.5078 271.602 73.5859C271.789 73.6641 271.977 73.8203 272.164 74.0547C272.367 74.2734 272.688 74.6875 273.125 75.2969L287.469 95.1719V76.6328C287.469 76.3828 287.211 76.1172 286.695 75.8359C286.195 75.5547 285.383 75.3359 284.258 75.1797V73.4688H294.219V75.1797C293.188 75.3203 292.391 75.5391 291.828 75.8359C291.266 76.1172 290.984 76.3828 290.984 76.6328V103.703C289.578 103.594 288.406 103.32 287.469 102.883C286.547 102.43 285.852 101.891 285.383 101.266L271.062 81.4375V99.8594C271.062 100.094 271.328 100.359 271.859 100.656C272.406 100.938 273.219 101.148 274.297 101.289V103H264.336V101.289ZM309.219 103.703C306.672 103.703 304.43 103.016 302.492 101.641C300.57 100.25 299.086 98.4062 298.039 96.1094C297.008 93.7969 296.492 91.3125 296.492 88.6562C296.492 85.8281 297.094 83.2031 298.297 80.7812C299.516 78.3438 301.195 76.3984 303.336 74.9453C305.492 73.4922 307.906 72.7656 310.578 72.7656C313.219 72.7656 315.5 73.4766 317.422 74.8984C319.344 76.3047 320.797 78.1562 321.781 80.4531C322.781 82.75 323.281 85.2109 323.281 87.8359C323.281 90.6172 322.641 93.2266 321.359 95.6641C320.078 98.1016 318.352 100.055 316.18 101.523C314.023 102.977 311.703 103.703 309.219 103.703ZM309.359 75.8125C307.875 75.8125 306.609 76.2969 305.562 77.2656C304.531 78.2188 303.75 79.6094 303.219 81.4375C302.688 83.25 302.422 85.4297 302.422 87.9766C302.422 90.2734 302.773 92.3828 303.477 94.3047C304.18 96.2266 305.133 97.75 306.336 98.875C307.539 99.9844 308.844 100.539 310.25 100.539C311.656 100.539 312.891 100.086 313.953 99.1797C315.031 98.2578 315.867 96.8828 316.461 95.0547C317.07 93.2109 317.375 90.9453 317.375 88.2578C317.375 86.0859 317.031 84.0469 316.344 82.1406C315.672 80.2344 314.727 78.7031 313.508 77.5469C312.289 76.3906 310.906 75.8125 309.359 75.8125ZM336.078 103.703C334.891 103.703 333.469 103.484 331.812 103.047C330.172 102.625 328.828 102.078 327.781 101.406C327.688 101.344 327.609 101.07 327.547 100.586C327.5 100.102 327.477 99.5078 327.477 98.8047C327.477 97.9453 327.516 97.0781 327.594 96.2031C327.672 95.3281 327.797 94.5938 327.969 94L329.633 94.1172C330.367 95.9922 331.391 97.5 332.703 98.6406C334.031 99.7812 335.477 100.352 337.039 100.352C337.992 100.352 338.883 100.172 339.711 99.8125C340.555 99.4531 341.227 98.9297 341.727 98.2422C342.227 97.5391 342.477 96.7109 342.477 95.7578C342.477 94.6328 342.164 93.6641 341.539 92.8516C340.93 92.0234 340.164 91.3359 339.242 90.7891C338.336 90.2422 337.109 89.6094 335.562 88.8906C333.844 88.0938 332.461 87.375 331.414 86.7344C330.383 86.0938 329.5 85.2656 328.766 84.25C328.047 83.2188 327.688 81.9688 327.688 80.5C327.688 79.4219 328.078 78.2812 328.859 77.0781C329.656 75.875 330.867 74.8594 332.492 74.0312C334.117 73.1875 336.102 72.7656 338.445 72.7656C340.133 72.7656 341.719 72.9688 343.203 73.375C344.688 73.7812 345.719 74.2969 346.297 74.9219C346.344 74.9688 346.367 75.0469 346.367 75.1562C346.367 75.4375 346.242 75.8828 345.992 76.4922C345.742 77.1016 345.445 77.6953 345.102 78.2734C344.773 78.8516 344.5 79.2422 344.281 79.4453L342.734 79.3047C342.109 77.9609 341.297 76.9844 340.297 76.375C339.297 75.7656 338.281 75.4609 337.25 75.4609C336.266 75.4609 335.438 75.6328 334.766 75.9766C334.109 76.3047 333.625 76.7422 333.312 77.2891C333 77.8359 332.844 78.4219 332.844 79.0469C332.844 79.875 333.109 80.6094 333.641 81.25C334.188 81.8906 334.875 82.4609 335.703 82.9609C336.531 83.4453 337.648 84.0312 339.055 84.7188C340.945 85.6562 342.453 86.4922 343.578 87.2266C344.719 87.9609 345.695 88.9062 346.508 90.0625C347.336 91.2031 347.75 92.5703 347.75 94.1641C347.75 95.6484 347.305 97.125 346.414 98.5938C345.539 100.062 344.219 101.281 342.453 102.25C340.703 103.219 338.578 103.703 336.078 103.703ZM356.703 101.289C358.016 101.023 358.953 100.742 359.516 100.445C360.078 100.148 360.359 99.8672 360.359 99.6016V76.2812H354.406C354.094 76.2812 353.805 76.4375 353.539 76.75C353.273 77.0469 352.984 77.5312 352.672 78.2031C352.375 78.8594 351.969 79.8516 351.453 81.1797L349.742 80.5469C349.82 79.6094 349.953 78.3984 350.141 76.9141C350.344 75.4297 350.523 74.2812 350.68 73.4688H375.758L376.648 74.2188C376.633 74.9688 376.531 76.0078 376.344 77.3359C376.156 78.6641 375.961 79.875 375.758 80.9688H374C373.938 80.6875 373.883 80.4297 373.836 80.1953C373.805 79.9609 373.766 79.7422 373.719 79.5391C373.562 78.6953 373.43 78.0625 373.32 77.6406C373.211 77.2188 373.047 76.8906 372.828 76.6562C372.625 76.4062 372.352 76.2812 372.008 76.2812H366.219V99.6016C366.219 99.8516 366.508 100.133 367.086 100.445C367.664 100.742 368.602 101.023 369.898 101.289V103H356.703V101.289ZM378.992 101.289C380.008 101.086 380.797 100.852 381.359 100.586C381.922 100.32 382.203 100.078 382.203 99.8594V76.6328C382.203 76.4141 381.93 76.1719 381.383 75.9062C380.836 75.625 380.039 75.3828 378.992 75.1797V73.4688H391.297V75.1797C390.266 75.3984 389.469 75.6406 388.906 75.9062C388.344 76.1562 388.062 76.3984 388.062 76.6328V99.8594C388.062 100.078 388.336 100.328 388.883 100.609C389.445 100.875 390.25 101.102 391.297 101.289V103H378.992V101.289ZM406.953 103.703C404.812 103.703 402.789 103.117 400.883 101.945C398.977 100.773 397.438 99.0938 396.266 96.9062C395.094 94.7188 394.508 92.1719 394.508 89.2656C394.508 86.0312 395.156 83.1641 396.453 80.6641C397.75 78.1484 399.523 76.2031 401.773 74.8281C404.039 73.4531 406.555 72.7656 409.32 72.7656C410.977 72.7656 412.602 72.9922 414.195 73.4453C415.805 73.8984 417.031 74.4531 417.875 75.1094C417.984 75.2031 417.883 75.6094 417.57 76.3281C417.273 77.0312 416.898 77.7812 416.445 78.5781C415.992 79.3594 415.648 79.8672 415.414 80.1016L413.891 79.7734C412.391 77.1641 410.359 75.8594 407.797 75.8594C406.594 75.875 405.438 76.2812 404.328 77.0781C403.219 77.8594 402.289 79.1875 401.539 81.0625C400.805 82.9219 400.438 85.3672 400.438 88.3984C400.438 90.9141 400.859 93.0312 401.703 94.75C402.562 96.4688 403.656 97.75 404.984 98.5938C406.328 99.4219 407.727 99.8359 409.18 99.8359C410.227 99.8359 411.438 99.5859 412.812 99.0859C414.188 98.5703 415.617 97.6953 417.102 96.4609C417.258 96.5547 417.539 96.9141 417.945 97.5391C418.164 97.8516 418.289 98.0234 418.32 98.0547C414.648 101.82 410.859 103.703 406.953 103.703ZM431.047 103.703C429.859 103.703 428.438 103.484 426.781 103.047C425.141 102.625 423.797 102.078 422.75 101.406C422.656 101.344 422.578 101.07 422.516 100.586C422.469 100.102 422.445 99.5078 422.445 98.8047C422.445 97.9453 422.484 97.0781 422.562 96.2031C422.641 95.3281 422.766 94.5938 422.938 94L424.602 94.1172C425.336 95.9922 426.359 97.5 427.672 98.6406C429 99.7812 430.445 100.352 432.008 100.352C432.961 100.352 433.852 100.172 434.68 99.8125C435.523 99.4531 436.195 98.9297 436.695 98.2422C437.195 97.5391 437.445 96.7109 437.445 95.7578C437.445 94.6328 437.133 93.6641 436.508 92.8516C435.898 92.0234 435.133 91.3359 434.211 90.7891C433.305 90.2422 432.078 89.6094 430.531 88.8906C428.812 88.0938 427.43 87.375 426.383 86.7344C425.352 86.0938 424.469 85.2656 423.734 84.25C423.016 83.2188 422.656 81.9688 422.656 80.5C422.656 79.4219 423.047 78.2812 423.828 77.0781C424.625 75.875 425.836 74.8594 427.461 74.0312C429.086 73.1875 431.07 72.7656 433.414 72.7656C435.102 72.7656 436.688 72.9688 438.172 73.375C439.656 73.7812 440.688 74.2969 441.266 74.9219C441.312 74.9688 441.336 75.0469 441.336 75.1562C441.336 75.4375 441.211 75.8828 440.961 76.4922C440.711 77.1016 440.414 77.6953 440.07 78.2734C439.742 78.8516 439.469 79.2422 439.25 79.4453L437.703 79.3047C437.078 77.9609 436.266 76.9844 435.266 76.375C434.266 75.7656 433.25 75.4609 432.219 75.4609C431.234 75.4609 430.406 75.6328 429.734 75.9766C429.078 76.3047 428.594 76.7422 428.281 77.2891C427.969 77.8359 427.812 78.4219 427.812 79.0469C427.812 79.875 428.078 80.6094 428.609 81.25C429.156 81.8906 429.844 82.4609 430.672 82.9609C431.5 83.4453 432.617 84.0312 434.023 84.7188C435.914 85.6562 437.422 86.4922 438.547 87.2266C439.688 87.9609 440.664 88.9062 441.477 90.0625C442.305 91.2031 442.719 92.5703 442.719 94.1641C442.719 95.6484 442.273 97.125 441.383 98.5938C440.508 100.062 439.188 101.281 437.422 102.25C435.672 103.219 433.547 103.703 431.047 103.703Z" fill="#476B80"/>
</svg>
