<svg width="479" height="135" viewBox="0 0 479 135" fill="none" xmlns="http://www.w3.org/2000/svg">
<path d="M67.927 99.6303C67.891 99.6303 67.8547 99.6298 67.8183 99.6292C66.0493 99.5831 64.5374 98.4241 64.1429 96.8103L50.9082 42.7245L39.2723 68.4306C38.6646 69.773 37.2569 70.6452 35.6982 70.6452H3.88106C1.73776 70.6452 0 69.0201 0 67.0158C0 65.0115 1.73776 63.3865 3.88106 63.3865H33.1267L48.4396 29.5568C49.0959 28.1069 50.6751 27.2179 52.3538 27.3561C54.0306 27.4941 55.4213 28.6274 55.7968 30.162L68.3565 81.4895L79.7818 44.3917C80.2498 42.8724 81.716 41.8109 83.4064 41.7684C85.0699 41.727 86.6219 42.7109 87.1772 44.2048L94.307 63.3865H123.448C125.591 63.3865 127.329 65.0115 127.329 67.0158C127.329 69.0201 125.591 70.6452 123.448 70.6452H91.5472C89.895 70.6452 88.4238 69.6669 87.8812 68.2073L83.858 57.3836L71.6555 97.0052C71.1757 98.5629 69.6518 99.6303 67.927 99.6303Z" fill="white"/>
<path d="M80.6881 130.043C80.3439 130.043 80.0138 129.914 79.7712 129.686L27.5106 80.575C27.0065 80.1015 27.0084 79.3354 27.515 78.8643C28.0213 78.3923 28.8406 78.3941 29.3444 78.8684L80.6881 127.118L141.909 69.5865C148.501 62.9165 152.15 54.2008 152.15 45.0775C152.15 25.1335 134.799 8.90773 113.471 8.90773C100.851 8.90773 88.9925 14.6973 81.7487 24.3954C81.5068 24.7191 81.1107 24.9122 80.6881 24.9122C80.2655 24.9122 79.8695 24.7194 79.6275 24.3954C72.3831 14.6973 60.5242 8.90773 47.9045 8.90773C26.5773 8.90773 9.22656 25.1335 9.22656 45.0775C9.22656 48.5583 9.75465 51.9998 10.7963 55.3057C10.9981 55.9466 10.6062 56.6194 9.92109 56.8082C9.23446 56.9975 8.51623 56.6304 8.31441 55.9897C7.20297 52.4614 6.63919 48.7898 6.63919 45.0775C6.63919 23.7993 25.1506 6.48816 47.9045 6.48816C60.7696 6.48816 72.8929 12.1268 80.6881 21.6536C88.4824 12.1268 100.606 6.48816 113.471 6.48816C136.225 6.48816 154.737 23.7993 154.737 45.0775C154.737 54.8116 150.844 64.1103 143.775 71.2609L81.605 129.686C81.3624 129.914 81.0324 130.043 80.6881 130.043Z" fill="white"/>
<path d="M80.6881 130.043C80.3439 130.043 80.0138 129.914 79.7712 129.686L27.5106 80.575C27.0065 80.1015 27.0084 79.3354 27.515 78.8643C28.0213 78.3923 28.8406 78.3941 29.3444 78.8684L80.6881 127.118L141.909 69.5865C148.501 62.9165 152.15 54.2008 152.15 45.0775C152.15 25.1335 134.799 8.90773 113.471 8.90773C100.851 8.90773 88.9925 14.6973 81.7487 24.3954C81.5068 24.7191 81.1107 24.9122 80.6881 24.9122C80.2655 24.9122 79.8695 24.7194 79.6275 24.3954C72.3831 14.6973 60.5242 8.90773 47.9045 8.90773C26.5773 8.90773 9.22656 25.1335 9.22656 45.0775C9.22656 48.5583 9.75465 51.9998 10.7963 55.3057C10.9981 55.9466 10.6062 56.6194 9.92109 56.8082C9.23446 56.9975 8.51623 56.6304 8.31441 55.9897C7.20297 52.4614 6.63919 48.7898 6.63919 45.0775C6.63919 23.7993 25.1506 6.48816 47.9045 6.48816C60.7696 6.48816 72.8929 12.1268 80.6881 21.6536C88.4824 12.1268 100.606 6.48816 113.471 6.48816C136.225 6.48816 154.737 23.7993 154.737 45.0775C154.737 54.8116 150.844 64.1103 143.775 71.2609L81.605 129.686C81.3624 129.914 81.0324 130.043 80.6881 130.043Z" fill="white"/>
<path d="M179.595 27.88C181.931 27.88 183.931 28.296 185.595 29.128C187.291 29.96 188.571 31.08 189.435 32.488C190.331 33.896 190.779 35.448 190.779 37.144C190.779 38.872 190.427 40.52 189.723 42.088C189.019 43.656 187.771 45.464 185.979 47.512C184.187 49.528 181.579 52.088 178.155 55.192H191.451L190.683 61H169.563V55.624C173.499 51.752 176.363 48.84 178.155 46.888C179.947 44.904 181.195 43.256 181.899 41.944C182.635 40.632 183.003 39.288 183.003 37.912C183.003 36.6 182.619 35.576 181.851 34.84C181.115 34.072 180.107 33.688 178.827 33.688C177.675 33.688 176.651 33.96 175.755 34.504C174.859 35.016 173.915 35.864 172.923 37.048L168.459 33.496C169.803 31.736 171.403 30.36 173.259 29.368C175.147 28.376 177.259 27.88 179.595 27.88ZM217.673 48.328V53.992H214.025V61H206.633L206.585 53.992H192.905V48.952L202.121 27.736L208.553 30.136L200.729 48.328H206.681L207.497 40.648H214.025V48.328H217.673ZM232.596 21.832L239.22 23.32L227.94 66.376L221.268 64.84L232.596 21.832ZM264.302 28.552V33.688L252.398 61.768L245.534 59.464L256.43 34.264H243.326V28.552H264.302ZM288.733 61.7031C286.592 61.7031 284.569 61.1172 282.663 59.9453C280.757 58.7734 279.217 57.0938 278.046 54.9062C276.874 52.7188 276.288 50.1719 276.288 47.2656C276.288 44.0312 276.936 41.1641 278.233 38.6641C279.53 36.1484 281.303 34.2031 283.553 32.8281C285.819 31.4531 288.335 30.7656 291.1 30.7656C292.757 30.7656 294.382 30.9922 295.975 31.4453C297.585 31.8984 298.811 32.4531 299.655 33.1094C299.764 33.2031 299.663 33.6094 299.35 34.3281C299.053 35.0312 298.678 35.7812 298.225 36.5781C297.772 37.3594 297.428 37.8672 297.194 38.1016L295.671 37.7734C294.171 35.1641 292.139 33.8594 289.577 33.8594C288.374 33.875 287.217 34.2812 286.108 35.0781C284.999 35.8594 284.069 37.1875 283.319 39.0625C282.585 40.9219 282.217 43.3672 282.217 46.3984C282.217 48.9141 282.639 51.0312 283.483 52.75C284.342 54.4688 285.436 55.75 286.764 56.5938C288.108 57.4219 289.507 57.8359 290.96 57.8359C292.007 57.8359 293.217 57.5859 294.592 57.0859C295.967 56.5703 297.397 55.6953 298.882 54.4609C299.038 54.5547 299.319 54.9141 299.725 55.5391C299.944 55.8516 300.069 56.0234 300.1 56.0547C296.428 59.8203 292.639 61.7031 288.733 61.7031ZM308.749 57.6953C308.717 57.8516 308.702 57.9531 308.702 58C308.702 58.3438 308.96 58.6094 309.475 58.7969C310.007 58.9844 310.866 59.1484 312.053 59.2891V61H301.811V59.2891C302.999 59.0859 303.85 58.8828 304.366 58.6797C304.882 58.4609 305.21 58.1328 305.35 57.6953L313.53 32.7109C314.202 32.1328 314.999 31.625 315.921 31.1875C316.858 30.75 317.796 30.3984 318.733 30.1328L328.577 57.6953C328.733 58.1641 329.014 58.5234 329.421 58.7734C329.842 59.0078 330.53 59.1797 331.483 59.2891V61H319.835V59.2891C320.866 59.2266 321.608 59.1094 322.061 58.9375C322.53 58.75 322.764 58.4766 322.764 58.1172C322.764 57.9922 322.741 57.8516 322.694 57.6953L320.303 50.9219H310.999L308.749 57.6953ZM315.452 37.2109L311.936 48.1094H319.319L315.452 37.2109ZM333.007 59.2891C334.022 59.0859 334.811 58.8516 335.374 58.5859C335.936 58.3203 336.217 58.0781 336.217 57.8594V33.8828L333.592 34.2344C333.483 34.2656 333.288 34.2969 333.007 34.3281L332.702 32.1719C334.639 31.75 336.561 31.4141 338.467 31.1641C340.374 30.8984 342.35 30.7656 344.397 30.7656C348.428 30.7656 351.397 31.4141 353.303 32.7109C355.225 33.9922 356.186 35.7109 356.186 37.8672C356.186 39.9453 355.592 41.7266 354.405 43.2109C353.233 44.6953 351.647 45.7812 349.647 46.4688L357.03 56.6875C357.436 57.2344 357.827 57.6094 358.202 57.8125C358.592 58.0156 359.108 58.1172 359.749 58.1172C359.921 58.1172 360.272 58.1016 360.803 58.0703L361.155 59.7812C360.014 60.1562 358.764 60.5078 357.405 60.8359C356.046 61.1641 355.077 61.3281 354.499 61.3281C354.061 61.3281 353.624 61.2031 353.186 60.9531C352.749 60.7031 352.421 60.3984 352.202 60.0391L345.475 47.2656C345.272 47.2812 344.967 47.2891 344.561 47.2891C343.702 47.2891 342.874 47.2031 342.077 47.0312V57.8594C342.077 58.0781 342.35 58.3281 342.897 58.6094C343.46 58.875 344.264 59.1016 345.311 59.2891V61H333.007V59.2891ZM342.077 44.4531C342.733 44.5625 343.428 44.6172 344.163 44.6172C346.225 44.6172 347.757 44.1016 348.757 43.0703C349.772 42.0234 350.28 40.5312 350.28 38.5938C350.28 35.0312 347.975 33.25 343.366 33.25C343.1 33.25 342.671 33.2656 342.077 33.2969V44.4531ZM362.069 61V59.2891C363.085 59.0859 363.874 58.8516 364.436 58.5859C364.999 58.3203 365.28 58.0781 365.28 57.8594V34.6328C365.28 34.4141 365.007 34.1719 364.46 33.9062C363.913 33.625 363.116 33.3828 362.069 33.1797V31.4688H382.717L383.655 32.2188C383.608 33.0938 383.475 34.2578 383.257 35.7109C383.053 37.1641 382.866 38.1719 382.694 38.7344H380.936C380.796 35.7656 380.155 34.2812 379.014 34.2812H371.139V43.7734H380.467L381.241 44.5938C380.272 46.2188 379.553 47.2031 379.085 47.5469C378.585 47.0781 378.007 46.75 377.35 46.5625C376.694 46.3594 375.725 46.2578 374.444 46.2578H371.139V56.6875C371.139 57.0312 371.257 57.3125 371.491 57.5312C371.741 57.7344 372.21 57.8984 372.897 58.0234C373.585 58.1328 374.592 58.1875 375.921 58.1875H378.241C379.194 58.1875 379.967 58.0312 380.561 57.7188C381.171 57.4062 381.686 56.9141 382.108 56.2422C382.546 55.5547 382.999 54.5625 383.467 53.2656L385.178 53.875C385.053 55.2344 384.889 56.6484 384.686 58.1172C384.499 59.5859 384.342 60.5469 384.217 61H362.069ZM169.178 107V105.289C170.194 105.086 170.983 104.852 171.546 104.586C172.108 104.32 172.389 104.078 172.389 103.859V79.8828L169.178 80.3281L168.874 78.1719C170.421 77.7812 172.444 77.4531 174.944 77.1875C177.444 76.9062 179.702 76.7656 181.717 76.7656C184.889 76.7656 187.6 77.3359 189.85 78.4766C192.116 79.6016 193.835 81.2422 195.007 83.3984C196.194 85.5547 196.788 88.1406 196.788 91.1562C196.788 94.8281 196.092 97.8516 194.702 100.227C193.311 102.602 191.546 104.328 189.405 105.406C187.264 106.469 185.022 107 182.678 107H169.178ZM178.249 102.688C178.249 103.031 178.264 103.273 178.296 103.414C178.389 103.789 178.686 104.062 179.186 104.234C179.686 104.406 180.561 104.492 181.811 104.492C183.124 104.492 184.452 104.047 185.796 103.156C187.139 102.25 188.257 100.867 189.147 99.0078C190.053 97.1328 190.507 94.8203 190.507 92.0703C190.507 87.9141 189.608 84.7422 187.811 82.5547C186.03 80.3516 183.436 79.25 180.03 79.25C179.655 79.25 179.061 79.2656 178.249 79.2969V102.688ZM200.21 105.289C201.225 105.086 202.014 104.852 202.577 104.586C203.139 104.32 203.421 104.078 203.421 103.859V80.6328C203.421 80.4141 203.147 80.1719 202.6 79.9062C202.053 79.625 201.257 79.3828 200.21 79.1797V77.4688H212.514V79.1797C211.483 79.3984 210.686 79.6406 210.124 79.9062C209.561 80.1562 209.28 80.3984 209.28 80.6328V103.859C209.28 104.078 209.553 104.328 210.1 104.609C210.663 104.875 211.467 105.102 212.514 105.289V107H200.21V105.289ZM221.374 103.695C221.342 103.852 221.327 103.953 221.327 104C221.327 104.344 221.585 104.609 222.1 104.797C222.632 104.984 223.491 105.148 224.678 105.289V107H214.436V105.289C215.624 105.086 216.475 104.883 216.991 104.68C217.507 104.461 217.835 104.133 217.975 103.695L226.155 78.7109C226.827 78.1328 227.624 77.625 228.546 77.1875C229.483 76.75 230.421 76.3984 231.358 76.1328L241.202 103.695C241.358 104.164 241.639 104.523 242.046 104.773C242.467 105.008 243.155 105.18 244.108 105.289V107H232.46V105.289C233.491 105.227 234.233 105.109 234.686 104.938C235.155 104.75 235.389 104.477 235.389 104.117C235.389 103.992 235.366 103.852 235.319 103.695L232.928 96.9219H223.624L221.374 103.695ZM228.077 83.2109L224.561 94.1094H231.944L228.077 83.2109ZM266.21 83.6797C265.21 82.2266 264.171 81.2031 263.092 80.6094C262.014 80 260.764 79.6953 259.342 79.6953C258.374 79.6953 257.311 80.0859 256.155 80.8672C254.999 81.6484 253.991 82.9688 253.132 84.8281C252.272 86.6719 251.842 89.0859 251.842 92.0703C251.842 94.7266 252.241 96.9531 253.038 98.75C253.835 100.531 254.882 101.852 256.178 102.711C257.491 103.57 258.921 104 260.467 104C262.046 104 263.428 103.711 264.616 103.133V95.9844C264.616 95.7031 264.538 95.4688 264.382 95.2812C264.225 95.0781 263.874 94.875 263.327 94.6719C262.78 94.4531 261.952 94.25 260.842 94.0625V92.3516H272.514V94.0625C270.999 94.4219 270.241 95.0625 270.241 95.9844V103.039C268.085 104.805 266.139 106.023 264.405 106.695C262.686 107.367 261.022 107.703 259.413 107.703C257.069 107.703 254.866 107.164 252.803 106.086C250.741 104.992 249.077 103.367 247.811 101.211C246.546 99.0391 245.913 96.4219 245.913 93.3594C245.913 89.9688 246.616 87.0234 248.022 84.5234C249.444 82.0078 251.389 80.0859 253.858 78.7578C256.342 77.4297 259.139 76.7656 262.249 76.7656C262.967 76.7656 263.835 76.8672 264.85 77.0703C265.866 77.2578 266.866 77.5312 267.85 77.8906C268.835 78.25 269.647 78.6719 270.288 79.1562C270.428 79.2656 270.335 79.6641 270.007 80.3516C269.694 81.0234 269.296 81.7422 268.811 82.5078C268.327 83.2734 267.952 83.7734 267.686 84.0078L266.21 83.6797ZM274.507 105.289C275.553 105.164 276.35 104.961 276.897 104.68C277.444 104.383 277.717 104.109 277.717 103.859V80.8906C276.702 79.9375 275.632 79.3672 274.507 79.1797V77.4688H281.046C281.358 77.4688 281.6 77.5078 281.772 77.5859C281.96 77.6641 282.147 77.8203 282.335 78.0547C282.538 78.2734 282.858 78.6875 283.296 79.2969L297.639 99.1719V80.6328C297.639 80.3828 297.382 80.1172 296.866 79.8359C296.366 79.5547 295.553 79.3359 294.428 79.1797V77.4688H304.389V79.1797C303.358 79.3203 302.561 79.5391 301.999 79.8359C301.436 80.1172 301.155 80.3828 301.155 80.6328V107.703C299.749 107.594 298.577 107.32 297.639 106.883C296.717 106.43 296.022 105.891 295.553 105.266L281.233 85.4375V103.859C281.233 104.094 281.499 104.359 282.03 104.656C282.577 104.938 283.389 105.148 284.467 105.289V107H274.507V105.289ZM319.389 107.703C316.842 107.703 314.6 107.016 312.663 105.641C310.741 104.25 309.257 102.406 308.21 100.109C307.178 97.7969 306.663 95.3125 306.663 92.6562C306.663 89.8281 307.264 87.2031 308.467 84.7812C309.686 82.3438 311.366 80.3984 313.507 78.9453C315.663 77.4922 318.077 76.7656 320.749 76.7656C323.389 76.7656 325.671 77.4766 327.592 78.8984C329.514 80.3047 330.967 82.1562 331.952 84.4531C332.952 86.75 333.452 89.2109 333.452 91.8359C333.452 94.6172 332.811 97.2266 331.53 99.6641C330.249 102.102 328.522 104.055 326.35 105.523C324.194 106.977 321.874 107.703 319.389 107.703ZM319.53 79.8125C318.046 79.8125 316.78 80.2969 315.733 81.2656C314.702 82.2188 313.921 83.6094 313.389 85.4375C312.858 87.25 312.592 89.4297 312.592 91.9766C312.592 94.2734 312.944 96.3828 313.647 98.3047C314.35 100.227 315.303 101.75 316.507 102.875C317.71 103.984 319.014 104.539 320.421 104.539C321.827 104.539 323.061 104.086 324.124 103.18C325.202 102.258 326.038 100.883 326.632 99.0547C327.241 97.2109 327.546 94.9453 327.546 92.2578C327.546 90.0859 327.202 88.0469 326.514 86.1406C325.842 84.2344 324.897 82.7031 323.678 81.5469C322.46 80.3906 321.077 79.8125 319.53 79.8125ZM346.249 107.703C345.061 107.703 343.639 107.484 341.983 107.047C340.342 106.625 338.999 106.078 337.952 105.406C337.858 105.344 337.78 105.07 337.717 104.586C337.671 104.102 337.647 103.508 337.647 102.805C337.647 101.945 337.686 101.078 337.764 100.203C337.842 99.3281 337.967 98.5938 338.139 98L339.803 98.1172C340.538 99.9922 341.561 101.5 342.874 102.641C344.202 103.781 345.647 104.352 347.21 104.352C348.163 104.352 349.053 104.172 349.882 103.812C350.725 103.453 351.397 102.93 351.897 102.242C352.397 101.539 352.647 100.711 352.647 99.7578C352.647 98.6328 352.335 97.6641 351.71 96.8516C351.1 96.0234 350.335 95.3359 349.413 94.7891C348.507 94.2422 347.28 93.6094 345.733 92.8906C344.014 92.0938 342.632 91.375 341.585 90.7344C340.553 90.0938 339.671 89.2656 338.936 88.25C338.217 87.2188 337.858 85.9688 337.858 84.5C337.858 83.4219 338.249 82.2812 339.03 81.0781C339.827 79.875 341.038 78.8594 342.663 78.0312C344.288 77.1875 346.272 76.7656 348.616 76.7656C350.303 76.7656 351.889 76.9688 353.374 77.375C354.858 77.7812 355.889 78.2969 356.467 78.9219C356.514 78.9688 356.538 79.0469 356.538 79.1562C356.538 79.4375 356.413 79.8828 356.163 80.4922C355.913 81.1016 355.616 81.6953 355.272 82.2734C354.944 82.8516 354.671 83.2422 354.452 83.4453L352.905 83.3047C352.28 81.9609 351.467 80.9844 350.467 80.375C349.467 79.7656 348.452 79.4609 347.421 79.4609C346.436 79.4609 345.608 79.6328 344.936 79.9766C344.28 80.3047 343.796 80.7422 343.483 81.2891C343.171 81.8359 343.014 82.4219 343.014 83.0469C343.014 83.875 343.28 84.6094 343.811 85.25C344.358 85.8906 345.046 86.4609 345.874 86.9609C346.702 87.4453 347.819 88.0312 349.225 88.7188C351.116 89.6562 352.624 90.4922 353.749 91.2266C354.889 91.9609 355.866 92.9062 356.678 94.0625C357.507 95.2031 357.921 96.5703 357.921 98.1641C357.921 99.6484 357.475 101.125 356.585 102.594C355.71 104.062 354.389 105.281 352.624 106.25C350.874 107.219 348.749 107.703 346.249 107.703ZM366.874 105.289C368.186 105.023 369.124 104.742 369.686 104.445C370.249 104.148 370.53 103.867 370.53 103.602V80.2812H364.577C364.264 80.2812 363.975 80.4375 363.71 80.75C363.444 81.0469 363.155 81.5312 362.842 82.2031C362.546 82.8594 362.139 83.8516 361.624 85.1797L359.913 84.5469C359.991 83.6094 360.124 82.3984 360.311 80.9141C360.514 79.4297 360.694 78.2812 360.85 77.4688H385.928L386.819 78.2188C386.803 78.9688 386.702 80.0078 386.514 81.3359C386.327 82.6641 386.132 83.875 385.928 84.9688H384.171C384.108 84.6875 384.053 84.4297 384.007 84.1953C383.975 83.9609 383.936 83.7422 383.889 83.5391C383.733 82.6953 383.6 82.0625 383.491 81.6406C383.382 81.2188 383.217 80.8906 382.999 80.6562C382.796 80.4062 382.522 80.2812 382.178 80.2812H376.389V103.602C376.389 103.852 376.678 104.133 377.257 104.445C377.835 104.742 378.772 105.023 380.069 105.289V107H366.874V105.289ZM389.163 105.289C390.178 105.086 390.967 104.852 391.53 104.586C392.092 104.32 392.374 104.078 392.374 103.859V80.6328C392.374 80.4141 392.1 80.1719 391.553 79.9062C391.007 79.625 390.21 79.3828 389.163 79.1797V77.4688H401.467V79.1797C400.436 79.3984 399.639 79.6406 399.077 79.9062C398.514 80.1562 398.233 80.3984 398.233 80.6328V103.859C398.233 104.078 398.507 104.328 399.053 104.609C399.616 104.875 400.421 105.102 401.467 105.289V107H389.163V105.289ZM417.124 107.703C414.983 107.703 412.96 107.117 411.053 105.945C409.147 104.773 407.608 103.094 406.436 100.906C405.264 98.7188 404.678 96.1719 404.678 93.2656C404.678 90.0312 405.327 87.1641 406.624 84.6641C407.921 82.1484 409.694 80.2031 411.944 78.8281C414.21 77.4531 416.725 76.7656 419.491 76.7656C421.147 76.7656 422.772 76.9922 424.366 77.4453C425.975 77.8984 427.202 78.4531 428.046 79.1094C428.155 79.2031 428.053 79.6094 427.741 80.3281C427.444 81.0312 427.069 81.7812 426.616 82.5781C426.163 83.3594 425.819 83.8672 425.585 84.1016L424.061 83.7734C422.561 81.1641 420.53 79.8594 417.967 79.8594C416.764 79.875 415.608 80.2812 414.499 81.0781C413.389 81.8594 412.46 83.1875 411.71 85.0625C410.975 86.9219 410.608 89.3672 410.608 92.3984C410.608 94.9141 411.03 97.0312 411.874 98.75C412.733 100.469 413.827 101.75 415.155 102.594C416.499 103.422 417.897 103.836 419.35 103.836C420.397 103.836 421.608 103.586 422.983 103.086C424.358 102.57 425.788 101.695 427.272 100.461C427.428 100.555 427.71 100.914 428.116 101.539C428.335 101.852 428.46 102.023 428.491 102.055C424.819 105.82 421.03 107.703 417.124 107.703ZM441.217 107.703C440.03 107.703 438.608 107.484 436.952 107.047C435.311 106.625 433.967 106.078 432.921 105.406C432.827 105.344 432.749 105.07 432.686 104.586C432.639 104.102 432.616 103.508 432.616 102.805C432.616 101.945 432.655 101.078 432.733 100.203C432.811 99.3281 432.936 98.5938 433.108 98L434.772 98.1172C435.507 99.9922 436.53 101.5 437.842 102.641C439.171 103.781 440.616 104.352 442.178 104.352C443.132 104.352 444.022 104.172 444.85 103.812C445.694 103.453 446.366 102.93 446.866 102.242C447.366 101.539 447.616 100.711 447.616 99.7578C447.616 98.6328 447.303 97.6641 446.678 96.8516C446.069 96.0234 445.303 95.3359 444.382 94.7891C443.475 94.2422 442.249 93.6094 440.702 92.8906C438.983 92.0938 437.6 91.375 436.553 90.7344C435.522 90.0938 434.639 89.2656 433.905 88.25C433.186 87.2188 432.827 85.9688 432.827 84.5C432.827 83.4219 433.217 82.2812 433.999 81.0781C434.796 79.875 436.007 78.8594 437.632 78.0312C439.257 77.1875 441.241 76.7656 443.585 76.7656C445.272 76.7656 446.858 76.9688 448.342 77.375C449.827 77.7812 450.858 78.2969 451.436 78.9219C451.483 78.9688 451.507 79.0469 451.507 79.1562C451.507 79.4375 451.382 79.8828 451.132 80.4922C450.882 81.1016 450.585 81.6953 450.241 82.2734C449.913 82.8516 449.639 83.2422 449.421 83.4453L447.874 83.3047C447.249 81.9609 446.436 80.9844 445.436 80.375C444.436 79.7656 443.421 79.4609 442.389 79.4609C441.405 79.4609 440.577 79.6328 439.905 79.9766C439.249 80.3047 438.764 80.7422 438.452 81.2891C438.139 81.8359 437.983 82.4219 437.983 83.0469C437.983 83.875 438.249 84.6094 438.78 85.25C439.327 85.8906 440.014 86.4609 440.842 86.9609C441.671 87.4453 442.788 88.0312 444.194 88.7188C446.085 89.6562 447.592 90.4922 448.717 91.2266C449.858 91.9609 450.835 92.9062 451.647 94.0625C452.475 95.2031 452.889 96.5703 452.889 98.1641C452.889 99.6484 452.444 101.125 451.553 102.594C450.678 104.062 449.358 105.281 447.592 106.25C445.842 107.219 443.717 107.703 441.217 107.703Z" fill="white"/>
</svg>
