<svg width="2000" height="350" viewBox="0 0 2000 350" fill="none" xmlns="http://www.w3.org/2000/svg">
<rect width="2000" height="350" fill="#F6F6F6"/>
<path d="M291.816 295.547C291.661 295.547 291.505 295.545 291.349 295.543C283.75 295.389 277.254 291.533 275.56 286.163L218.703 106.187L168.715 191.726C166.104 196.193 160.057 199.096 153.361 199.096H16.6731C7.46544 199.096 0 193.688 0 187.019C0 180.349 7.46544 174.941 16.6731 174.941H142.313L208.098 62.37C210.917 57.5453 217.702 54.5869 224.913 55.0469C232.117 55.5059 238.091 59.277 239.705 64.3838L293.661 235.181L342.745 111.735C344.755 106.679 351.054 103.147 358.316 103.005C365.463 102.868 372.13 106.141 374.516 111.113L405.145 174.941H530.335C539.542 174.941 547.008 180.349 547.008 187.019C547.008 193.688 539.542 199.096 530.335 199.096H393.289C386.191 199.096 379.871 195.84 377.54 190.983L360.256 154.966L307.834 286.811C305.773 291.995 299.226 295.547 291.816 295.547Z" fill="#52ABDB" fill-opacity="0.21"/>
</svg>
