<svg width="1266" height="347" viewBox="0 0 1266 347" fill="none" xmlns="http://www.w3.org/2000/svg">
<rect width="1266" height="367.292" fill="#F7F7F7"/>
<path d="M1076.46 266C1076.34 266 1076.22 265.999 1076.09 265.997C1070.09 265.88 1064.96 262.93 1063.62 258.822L1018.72 121.154L979.243 186.585C977.181 190.002 972.405 192.222 967.117 192.222H859.168C851.896 192.222 846 188.086 846 182.984C846 177.883 851.896 173.746 859.168 173.746H958.392L1010.35 87.6375C1012.57 83.9469 1017.93 81.684 1023.63 82.0359C1029.31 82.387 1034.03 85.2716 1035.31 89.1779L1077.92 219.825L1116.68 125.398C1118.27 121.53 1123.25 118.829 1128.98 118.72C1134.62 118.615 1139.89 121.119 1141.77 124.922L1165.96 173.746H1264.83C1272.1 173.746 1278 177.883 1278 182.984C1278 188.086 1272.1 192.222 1264.83 192.222H1156.6C1150.99 192.222 1146 189.732 1144.16 186.017L1130.51 158.467L1089.11 259.318C1087.48 263.283 1082.31 266 1076.46 266Z" fill="#52ABDB" fill-opacity="0.21"/>
</svg>
