<svg width="563" height="370" viewBox="0 0 563 370" fill="none" xmlns="http://www.w3.org/2000/svg">
<path d="M300.348 370C300.188 370 300.028 369.997 299.867 369.994C292.045 369.758 285.36 363.826 283.616 355.566L225.097 78.7333L173.647 210.307C170.96 217.178 164.736 221.642 157.844 221.642H17.1606C7.6837 221.642 0 213.325 0 203.066C0 192.807 7.6837 184.49 17.1606 184.49H146.474L214.182 11.3362C217.084 3.91502 224.066 -0.635367 231.489 0.0721477C238.903 0.778145 245.052 6.57874 246.712 14.4338L302.247 277.148L352.765 87.2671C354.835 79.4906 361.317 74.0574 368.792 73.8397C376.147 73.6281 383.01 78.6637 385.465 86.3102L416.99 184.49H545.839C555.316 184.49 563 192.807 563 203.066C563 213.325 555.316 221.642 545.839 221.642H404.787C397.482 221.642 390.977 216.636 388.578 209.164L370.789 153.765L316.834 356.564C314.712 364.537 307.974 370 300.348 370Z" fill="#52ABDB" fill-opacity="0.21"/>
</svg>
